<svg xmlns="http://www.w3.org/2000/svg" width="88.802" height="80" viewBox="0 0 88.802 80">
  <path id="Path_5315" data-name="Path 5315" d="M486.4,1442.388c-1.089-.031-2.2-.063-3.289-.063-4.632,0-9.265-.031-13.9,0-1.714,0-2.8-.94-3.5-3.1-2.432-7.556-4.933-15.08-7.412-22.635-.139-.47-.3-.909-.579-1.724-.162.753-.255,1.16-.324,1.568q-4.794,29.156-9.566,58.375c-.278,1.661-.88,2.916-2.131,3.386a2.272,2.272,0,0,1-2.918-1.16,9.161,9.161,0,0,1-.811-2.038q-5.663-19.845-11.3-39.753c-.139-.5-.3-.972-.533-1.724-.185.6-.3.909-.394,1.254-1.9,6.8-3.752,13.638-5.7,20.409a5.882,5.882,0,0,1-1.274,2.414c-1.459,1.442-3.243.752-4.169-1.536-.741-1.85-1.413-3.762-2.108-5.674-.857-2.32-1.737-4.609-2.548-6.928-.324-.909-.718-1.191-1.459-1.191-4.609.063-9.2.031-13.8.031H397.6v-7.869h.926c5.374,0,10.77.031,16.144,0,1.621,0,2.756.847,3.451,2.853.695,2.038,1.459,3.981,2.2,5.988.116.345.278.658.486,1.191.185-.6.324-.972.417-1.348,1.946-6.991,3.868-13.982,5.814-20.974.069-.282.162-.6.232-.878.486-1.662,1.343-2.728,2.733-2.79,1.3-.063,2.339.972,2.872,2.822.926,3.229,1.853,6.49,2.779,9.75,2.664,9.405,5.35,18.842,8.014,28.247.116.376.255.753.51,1.474.394-2.351.741-4.358,1.065-6.364q4.273-26.147,8.57-52.293c.579-3.511,3.1-4.891,4.864-2.665a6.889,6.889,0,0,1,.973,2.038q5.211,15.8,10.376,31.633c.324,1,.695,1.379,1.529,1.379,4.632-.063,9.265-.031,13.9-.031.324,0,.625-.031.95-.063Z" transform="translate(-397.6 -1398.359)" fill="#fff"/>
</svg>
