<svg xmlns="http://www.w3.org/2000/svg" width="61.203" height="80." viewBox="0 0 61.203 80">
  <path id="Path_5316" data-name="Path 5316" d="M415.6,916.429v-4.688h4.728c.1-1.177.177-2.276.294-3.394.667-6.16,2.511-11.927,6.375-16.851a78.8,78.8,0,0,1,5.375-5.806c1.589-1.648,3.374-3.139,4.884-4.865a6.435,6.435,0,0,0,.02-9.141c-1.55-1.766-3.3-3.335-5.022-4.963a40.06,40.06,0,0,1-6.866-8.023,33.435,33.435,0,0,1-4.61-13.3c-.2-1.53-.314-3.06-.49-4.649H415.62V836.1h61.125v4.649H472.1c-.157,1.53-.275,3.021-.471,4.492a31.988,31.988,0,0,1-9.082,19.087c-1.883,1.883-3.864,3.688-5.787,5.532a11.119,11.119,0,0,0-3.1,4.2,6.382,6.382,0,0,0,1.275,6.532c.824,1,1.785,1.9,2.707,2.844,2.3,2.315,4.747,4.512,6.885,6.964a29.8,29.8,0,0,1,6.768,14.771c.373,2.138.569,4.3.863,6.513H476.8v4.728Q446.2,916.439,415.6,916.429Zm9.514-75.6A36.406,36.406,0,0,0,426.9,850.91a1.055,1.055,0,0,0,1.177.883q18.126-.029,36.251-.02a1.252,1.252,0,0,0,.471-.02c.2-.078.451-.177.51-.333a34.678,34.678,0,0,0,1.981-10.593Zm18.675,52.886v-15.87a11.5,11.5,0,0,1-2.668,5.689c-1.412,1.609-2.982,3.06-4.473,4.61-1.981,2.06-4.041,4.08-5.9,6.258a20.056,20.056,0,0,0-3.413,6.1C432.882,898.206,438.3,895.989,443.789,893.713Zm4.767-15.889v14.163c0,.628-.157,1.373.118,1.824.235.373,1.02.373,1.55.589,4.688,1.922,9.357,3.845,14.045,5.767.216.1.451.157.785.294a23.394,23.394,0,0,0-4.708-7.69c-2.256-2.393-4.688-4.629-7.042-6.925C451.027,883.611,449.144,881.1,448.556,877.824Z" transform="translate(-415.6 -836.1)" fill="#fff"/>
</svg>
